<svg xmlns="http://www.w3.org/2000/svg" viewBox="0 58.667 512 304" fill="#FFFFFF">
  <!-- top tier (small arches + upper channel) -->
  <path d="M0,58.667V112c17.673,0,32,14.327,32,32v21.333h64V144c0-17.673,14.327-32,32-32s32,14.327,32,32v21.333h64V144c0-17.673,14.328-32,32-32c17.673,0,32,14.327,32,32v21.333h64V144c0-17.673,14.328-32,32-32c17.673,0,32,14.327,32,32v21.333h64V144c0-17.673,14.328-32,32-32V58.667H0z"/>
  <!-- middle tier: gap halved (translate -16) AND column body shortened 106.667 → 96 -->
  <path transform="translate(0,-16)" d="M0,197.333v53.333c17.673,0,32,14.327,32,32v96h64V282.667c0-17.673,14.328-32,32-32s32,14.327,32,32v96h64V282.667c0-17.673,14.328-32,32-32c17.673,0,32,14.327,32,32v96h64V282.667c0-17.673,14.328-32,32-32c17.673,0,32,14.327,32,32v96h64V282.667c0-17.673,14.328-32,32-32v-53.333H0z"/>
</svg>
